<?xml version="1.0" encoding="iso-8859-1"?>
<!-- Generator: Adobe Illustrator 16.0.0, SVG Export Plug-In . SVG Version: 6.00 Build 0)  -->
<!DOCTYPE svg PUBLIC "-//W3C//DTD SVG 1.1//EN" "http://www.w3.org/Graphics/SVG/1.1/DTD/svg11.dtd">
<svg version="1.1" id="Capa_1" xmlns="http://www.w3.org/2000/svg" xmlns:xlink="http://www.w3.org/1999/xlink" x="0px" y="0px"
	 width="419.657px" height="419.657px" viewBox="0 0 419.657 419.657" style="enable-background:new 0 0 419.657 419.657;"
	 xml:space="preserve">
<g>
	<g>
		<path d="M265.314,88.434c-15.834,0-32.526,9.207-44.729,15.939c-2.91,1.605-8.734,5.496-10.756,5.495
			c-2.008,0-7.809-3.88-10.717-5.487c-12.163-6.73-28.82-15.947-44.768-15.947c-20.149,0-38.646,8.285-52.082,23.33
			c-12.735,14.258-19.75,33.01-19.75,52.807c0,27.688,9.902,66.976,26.489,105.091c7.39,16.979,15.267,31.665,22.781,42.479
			c9.362,13.471,17.651,20.02,25.342,20.02c3.694,0,10.435-1.5,14.063-11.543c3.021-8.355,5.727-17.902,8.605-28.059
			c6.538-23.076,16.42-57.951,29.559-57.951h0.957c5.609,0,10.855,5.275,16.035,16.125c5.51,11.539,9.744,27.053,13.842,42.06
			c2.744,10.052,5.336,19.548,8.272,27.79c3.563,10,10.246,11.496,13.916,11.498c7.664,0,15.949-6.646,25.328-20.318
			c7.496-10.927,15.388-25.756,22.82-42.885c16.67-38.41,26.621-77.402,26.621-104.305c0-19.797-7.014-38.551-19.748-52.807
			C303.96,96.719,285.464,88.434,265.314,88.434z M296.328,262.715c-6.948,16.01-14.543,30.318-21.385,40.291
			c-6.09,8.877-7.759,9.819-10.922,12.652c-0.414,0.371-0.812,0.208-0.984-0.271c-2.748-7.674-5.256-16.903-7.926-26.682
			c-4.272-15.656-8.692-31.846-14.801-44.641c-8.012-16.777-17.826-24.934-30.002-24.934h-0.957
			c-11.77,0-21.372,8.092-29.359,24.739c-6.083,12.679-10.671,28.871-15.119,44.57c-2.78,9.812-5.405,19.077-8.237,26.909
			c-0.125,0.345-0.324,1.099-1.106,0.867c-1.917-0.564-4.843-3.996-11.04-12.912c-6.846-9.85-14.409-23.991-21.299-39.819
			c-15.546-35.726-25.203-73.629-25.203-98.916c0-29.819,21.079-60.662,56.355-60.662c9.116,0,21.201,4.219,32.326,11.287
			c1.601,1.018,3.937,2.813,6.195,4.55c0.922,0.71,1.831,1.407,2.68,2.047c2.764,2.069,6.496,4.774,10.889,7.358
			c2.326,1.375,4.443,2.595,6.832,3.607c9.57,4.063,19.717,6.123,30.16,6.123c10.752,0,32.903-4.556,32.903-7.033
			c0-1.689-26.143,1.477-45.075-5.783c-3.002-1.151-9.127-3.154-9.127-3.94c0-0.563,0.555-1.073,1.104-1.403
			c1.351-0.808,2.879-1.722,4.849-2.809c10.711-5.91,25.381-14.004,37.233-14.004c35.275,0,56.355,30.843,56.355,60.662
			C321.669,189.085,311.958,226.692,296.328,262.715z"/>
		<path d="M395.208,98.594c-0.515-12.152-9.285-25.033-20.406-29.959L227.548,3.385C222.621,1.202,216.271,0,209.667,0
			s-12.953,1.202-17.88,3.385L44.532,68.635c-11.145,4.938-19.876,17.848-20.307,30.03c-0.219,6.14-5.018,150.921,22.087,198.354
			c27,47.248,140.428,115.155,145.243,118.022c4.997,2.978,11.452,4.615,18.176,4.615c6.67,0,13.078-1.615,18.043-4.549
			c4.861-2.869,119.326-70.825,146.336-118.091C401.232,249.555,395.468,104.737,395.208,98.594z M356.746,287.096
			C332.353,329.782,218.75,397.213,217.607,397.89c-1.877,1.106-4.819,1.77-7.875,1.77c-3.082,0-6.053-0.672-7.943-1.799
			c-1.133-0.676-113.709-68.062-138.112-110.765C43.515,251.811,42.79,139.623,44.212,99.373c0.159-4.473,4.33-10.641,8.422-12.454
			L199.89,21.67c2.359-1.046,6.016-1.67,9.777-1.67c3.764,0,7.418,0.624,9.777,1.67L366.7,86.919
			c4.113,1.823,8.336,8.022,8.525,12.517C376.921,139.672,376.904,251.817,356.746,287.096z"/>
	</g>
</g>
<g>
</g>
<g>
</g>
<g>
</g>
<g>
</g>
<g>
</g>
<g>
</g>
<g>
</g>
<g>
</g>
<g>
</g>
<g>
</g>
<g>
</g>
<g>
</g>
<g>
</g>
<g>
</g>
<g>
</g>
</svg>
